<?xml version="1.0" encoding="utf-8"?>
<!-- Generator: Adobe Illustrator 18.1.1, SVG Export Plug-In . SVG Version: 6.00 Build 0)  -->
<svg version="1.1" id="Layer_1" xmlns="http://www.w3.org/2000/svg" xmlns:xlink="http://www.w3.org/1999/xlink" x="0px" y="0px"
	 viewBox="0 0 35 50" enable-background="new 0 0 35 50" xml:space="preserve">
<g>
	<g>
		<g>
			<path fill="#A7A9AC" d="M17.2,27.4c3.5,0,5.9-1.5,6.2-8.4H10.9C11.3,25.9,13.7,27.4,17.2,27.4z"/>
			<g>
				<path fill="#A7A9AC" d="M15.7,15.7c1-1,1-2.7,0-3.7c-1-1-2.7-1-3.7,0c-0.9,0.9-1,2.4-0.3,3.4l-0.6,1.2l1.2-0.6
					C13.4,16.8,14.8,16.7,15.7,15.7z"/>
				<path fill="#A7A9AC" d="M9.5,8.4c-0.7-0.7-1.9-0.7-2.6,0c-0.7,0.7-0.7,1.9,0,2.6c0.7,0.6,1.7,0.7,2.4,0.2l0.8,0.4l-0.4-0.8
					C10.2,10.1,10.1,9.1,9.5,8.4z"/>
				<path fill="#A7A9AC" d="M12.8,4.5c0.5-0.5,0.5-1.2,0-1.7c-0.5-0.5-1.2-0.5-1.7,0c-0.4,0.4-0.5,1.1-0.1,1.5l-0.3,0.5l0.5-0.3
					C11.8,4.9,12.4,4.9,12.8,4.5z"/>
			</g>
		</g>
		<path fill="#F7901E" d="M25.7,0.1v4c-0.8-1.1-1.7-1.9-2.5-2.5l-2.9,2.9c4.7,1.5,5.4,6.9,5.4,12.2c0,6.3-1,12.7-8.4,12.7
			c-7.4,0-8.5-6.3-8.5-12.7c0-0.3,0-0.5,0-0.8l-4.8,4.8c0.4,4,1.4,7.6,4,10.1c1.8,1.8,4.8,3,8.2,3c3.7,0,6.8-0.9,9.5-4.4v5.3
			c0,5.8-2.8,10.4-9.3,10.4c-3.9,0-5.7-1.2-8.1-3.4l-3.2,3.2c3.6,3.2,6.4,4.6,11.5,4.6c8.9,0,14.1-6.1,14.1-14.6v-35H25.7z"/>
	</g>
	<rect x="-3.3" y="-8.6" fill="none" width="42.5" height="66.9"/>
</g>
</svg>
